<svg width="41" height="41" viewBox="0 0 41 41" fill="none" xmlns="http://www.w3.org/2000/svg">
<path d="M32.1667 11.948H8.83335C8.39133 11.948 7.9674 12.1236 7.65484 12.4362C7.34228 12.7487 7.16669 13.1726 7.16669 13.6147V35.2813C7.16669 35.7234 7.34228 36.1473 7.65484 36.4598C7.9674 36.7724 8.39133 36.948 8.83335 36.948H32.1667C32.6087 36.948 33.0326 36.7724 33.3452 36.4598C33.6578 36.1473 33.8334 35.7234 33.8334 35.2813V13.6147C33.8334 13.1726 33.6578 12.7487 33.3452 12.4362C33.0326 12.1236 32.6087 11.948 32.1667 11.948Z" stroke="white" stroke-width="2" stroke-linecap="round" stroke-linejoin="round"/>
<path d="M14.6667 15.2813V9.44796C14.6667 8.68191 14.8176 7.92337 15.1107 7.21564C15.4039 6.5079 15.8336 5.86484 16.3752 5.32317C16.9169 4.78149 17.56 4.35181 18.2677 4.05866C18.9754 3.76551 19.734 3.61462 20.5 3.61462C21.2661 3.61462 22.0246 3.76551 22.7323 4.05866C23.4401 4.35181 24.0831 4.78149 24.6248 5.32317C25.1665 5.86484 25.5962 6.5079 25.8893 7.21564C26.1825 7.92337 26.3334 8.68191 26.3334 9.44796V15.2813" stroke="white" stroke-width="2" stroke-linecap="round" stroke-linejoin="round"/>
</svg>
