<svg width="29" height="29" viewBox="0 0 29 29" fill="none" xmlns="http://www.w3.org/2000/svg">
<path d="M9.18981 7.11591C9.93484 7.11591 10.6239 7.1741 11.2535 7.34634C11.8843 7.46156 12.4008 7.692 12.859 7.97947C13.3184 8.2681 13.6624 8.67079 13.8909 9.18869C14.1206 9.7066 14.236 10.3409 14.236 11.031C14.236 11.8376 14.0635 12.5277 13.6624 13.0456C13.3184 13.5647 12.7448 14.0244 12.0569 14.3701C13.0316 14.6587 13.7766 15.1766 14.236 15.8679C14.6942 16.5581 14.9811 17.4216 14.9811 18.4004C14.9811 19.207 14.8085 19.8971 14.5217 20.4732C14.236 21.0493 13.7766 21.5672 13.2601 21.9129C12.699 22.2833 12.0788 22.5557 11.4261 22.7182C10.7382 22.8917 10.0503 23.0069 9.36237 23.0069H1.67761V7.11591H9.18981ZM8.73042 13.5635C9.3612 13.5635 9.87771 13.3913 10.2788 13.1038C10.6799 12.8164 10.8524 12.2973 10.8524 11.6642C10.8524 11.3185 10.7941 10.974 10.6799 10.7436C10.5656 10.5131 10.3931 10.3397 10.1645 10.1675C9.93485 10.0523 9.70515 9.93704 9.41833 9.88001C9.13151 9.82182 8.84585 9.82182 8.50073 9.82182H5.17545V13.5647H8.73159L8.73042 13.5635ZM8.90298 20.358C9.24694 20.358 9.59089 20.2998 9.87771 20.2428C10.1645 20.1846 10.4514 20.0705 10.6799 19.8971C10.9135 19.7286 11.109 19.5129 11.2535 19.264C11.3678 18.9765 11.4832 18.6309 11.4832 18.2282C11.4832 17.4216 11.2535 16.8455 10.7953 16.4429C10.3359 16.0972 9.70515 15.925 8.96011 15.925H5.17545V20.3592L8.90298 20.358ZM19.9701 20.2998C20.4284 20.7607 21.1163 20.9911 22.0339 20.9911C22.6646 20.9911 23.2383 20.8189 23.6965 20.5314C24.1559 20.1857 24.4427 19.8401 24.557 19.4956H27.3669C26.9075 20.8759 26.2196 21.8547 25.3032 22.489C24.3844 23.0639 23.2954 23.4096 21.9767 23.4096C21.133 23.4122 20.2964 23.2558 19.5108 22.9487C18.8038 22.6841 18.1734 22.2491 17.6756 21.6824C17.1431 21.1524 16.7495 20.4997 16.5294 19.7819C16.2426 19.0336 16.1272 18.2282 16.1272 17.3064C16.1272 16.4429 16.2426 15.6375 16.5294 14.888C16.8057 14.1668 17.2141 13.5034 17.7339 12.9316C18.2575 12.3949 18.8803 11.9645 19.5679 11.6642C20.3336 11.357 21.1515 11.2005 21.9767 11.2033C22.9515 11.2033 23.8119 11.3767 24.557 11.7794C25.3032 12.1821 25.8757 12.6429 26.3339 13.3343C26.7933 13.9674 27.1384 14.7157 27.3669 15.5223C27.4812 16.3276 27.5383 17.1342 27.4812 18.0548H19.1668C19.1668 18.9765 19.5108 19.8401 19.9701 20.301V20.2998ZM23.5823 14.2549C23.1812 13.8522 22.5504 13.6217 21.8042 13.6217C21.2888 13.6217 20.8866 13.7381 20.5426 13.9104C20.1987 14.0826 19.9701 14.313 19.7405 14.5435C19.529 14.766 19.3889 15.0464 19.3382 15.3489C19.2811 15.6375 19.2239 15.8679 19.2239 16.0972H24.3844C24.2702 15.2336 23.9833 14.6587 23.5823 14.2549ZM18.536 8.20991H24.9581V9.76479H18.5372V8.20991H18.536Z" fill="white"/>
</svg>
