<svg width="238" height="63" viewBox="0 0 238 63" fill="none" xmlns="http://www.w3.org/2000/svg">
<path fill-rule="evenodd" clip-rule="evenodd" d="M98.5417 35.2872L106.609 29.9318L79.9532 18.5705C79.4898 18.373 78.9871 18.7533 79.0513 19.2529L79.8197 25.2413L74.2265 17.816C73.9006 17.3833 73.2197 17.514 73.0772 18.0366L72.057 21.7773L69.9568 21.3573C69.8351 21.333 69.7113 21.3207 69.5872 21.3207C66.9061 21.3207 64.2706 22.014 61.9366 23.3332L40.0885 35.6817L27.7638 42.5933L33.889 38.777L73.7069 13.4398C74.6672 12.8287 75.8767 12.763 76.8976 13.2664L108.349 28.7767L150.877 0.543782C152.068 -0.247083 153.636 -0.168891 154.742 0.736587L161.829 6.53502C162.544 7.11971 163.419 7.47379 164.339 7.55047L171.99 8.18804C173.228 8.29119 174.411 8.74594 175.399 9.49873L186.671 18.0875L216.043 36.8219L178.821 16.3119C178.596 16.1882 178.32 16.2076 178.115 16.3613L175.606 18.2432C175.087 18.6327 174.441 18.8144 173.795 18.7529L166.291 18.0382C165.801 17.9916 165.438 18.4835 165.627 18.9376L167.493 23.4148L161.302 18.772C160.581 18.2308 159.695 17.9557 158.794 17.9933L158.724 17.9962C157.276 18.0565 155.853 18.3844 154.525 18.9633L151.927 20.0957C151.044 20.4805 150.117 20.7551 149.168 20.9134L148.881 20.9612C146.435 21.3687 143.924 20.9911 141.706 19.8823L135.406 16.7323C134.627 16.3427 133.705 16.3681 132.948 16.7999L100.825 35.135L92.2177 39.4287L98.5417 35.2872ZM201.803 61.1617L202.798 57.0239L204.64 47.7408C205.285 44.4986 206.499 41.9774 208.283 40.1772C210.075 38.368 213.543 36.8219 216.107 36.8219C215.345 36.8568 210.138 39.3705 208.7 41.964C208.129 42.9931 208.035 43.6185 207.894 44.5624L207.894 44.5626C207.82 45.0568 207.732 45.6383 207.557 46.4108L206.226 52.2816H206.387C207.23 50.4366 208.337 48.9454 209.708 47.8079C211.088 46.6615 212.464 46.0883 213.835 46.0883C215.349 46.0883 216.107 46.8183 216.107 48.2781C216.107 49.8007 215.488 51.077 214.251 52.1069C213.015 53.1369 211.254 53.84 208.968 54.2161C211.514 57.7449 213.4 59.5093 214.628 59.5093C215.408 59.5093 216.38 58.9674 217.545 57.8837L217.357 58.8375C215.573 60.5034 214.148 61.3363 213.082 61.3363C212.222 61.3363 211.352 60.9154 210.474 60.0735C209.605 59.2227 208.099 57.3508 205.957 54.4579L204.653 61.0005L201.803 61.1617ZM206.105 53.7056L206.078 53.8803H206.535C208.417 53.8803 210.044 53.3698 211.415 52.3487C212.786 51.3277 213.472 50.1231 213.472 48.7349C213.472 47.8572 213.122 47.4183 212.423 47.4183C210.909 47.4183 208.803 49.5141 206.105 53.7056ZM199.298 58.1793L199.54 56.9299C197.756 58.9002 196.421 59.8854 195.534 59.8854C195.005 59.8854 194.741 59.5944 194.741 59.0122C194.741 58.7256 194.844 58.0628 195.05 57.0239L196.367 50.3873L197.389 46.0883L190.815 48.2378L190.654 49.0708C191.694 48.7573 192.415 48.6006 192.818 48.6006C193.401 48.6006 193.692 48.9767 193.692 49.729C193.692 50.1679 193.567 51.0501 193.316 52.3756L192.388 57.0508C192.182 58.0987 192.079 58.851 192.079 59.3078C192.079 60.6601 192.724 61.3363 194.015 61.3363C195.574 61.3363 197.335 60.284 199.298 58.1793ZM195.507 41.9237L194.606 43.7507L198.142 41.9237L199.298 39.4517L195.507 41.9237ZM77.5059 59.7645L79.4147 57.8165C80.3109 59.2764 81.5611 60.0063 83.1653 60.0063C85.5402 60.0063 87.104 58.0987 87.8568 54.2833L90.2362 42.3536C89.7791 42.2819 89.4565 42.2461 89.2683 42.2461C87.8434 42.2461 86.6246 42.7656 85.6119 43.8045C84.6081 44.8434 84.1063 46.0973 84.1063 47.5661V47.7542L81.4984 49.0305C81.6955 46.469 82.7037 44.512 84.523 43.1596C86.3512 41.7983 88.8785 41.1176 92.1047 41.1176H93.3011L91.3923 50.7366L98.4229 44.0732C100.86 41.7714 102.846 40.6205 104.378 40.6205C104.987 40.6205 105.579 40.7862 106.152 41.1176L104.297 43.0925C103.912 42.77 103.54 42.6088 103.182 42.6088C102.142 42.6088 100.681 43.3567 98.7993 44.8524C96.9262 46.3481 95.3041 48.0587 93.933 49.9843C94.2645 50.5485 95.1294 52.0442 96.5274 54.4714C98.517 57.9374 100.233 59.6705 101.676 59.6705C102.16 59.6705 102.993 59.2943 104.176 58.542L103.975 59.563C102.433 60.8527 101.129 61.4976 100.063 61.4976C98.862 61.4976 97.6477 60.7542 96.4199 59.2674C95.1921 57.7807 93.5028 55.0043 91.3519 50.9381L91.0024 52.6577C90.5006 55.1834 89.3759 57.2478 87.6283 58.851C85.8897 60.4542 83.9046 61.2557 81.6731 61.2557C80.0331 61.2557 78.644 60.7587 77.5059 59.7645ZM0.0134428 61.0005L1.98954 59.0122L2.19118 58.9853C2.24495 58.9764 2.36145 58.9808 2.54069 58.9988C2.63031 59.0077 2.72889 59.0122 2.83643 59.0122C3.81328 59.0122 4.54815 58.7166 5.04105 58.1255C5.54292 57.5255 5.9462 56.4552 6.25091 54.9147L8.7916 42.1655C6.94545 42.1655 5.4533 42.6626 4.31514 43.6567C3.17698 44.6419 2.6079 45.9316 2.6079 47.5258V47.8214L0 49.0842C0.466017 43.7731 4.29274 41.1176 11.4802 41.1176H15.3651C18.3584 41.1176 20.5182 41.6774 21.8446 42.7969C23.1709 43.9075 23.8341 45.7256 23.8341 48.2513C23.8341 52.3443 22.4181 55.5506 19.5862 57.8703C16.7632 60.181 12.8603 61.3363 7.87748 61.3363C7.67136 61.3363 7.25463 61.3229 6.6273 61.296L0.0134428 61.0005ZM4.8663 59.3078L7.25912 59.7108C8.55859 59.9347 9.88046 60.0466 11.2247 60.0466C13.0709 60.0466 14.5093 59.7959 15.5399 59.2943C16.5705 58.7838 17.5249 57.8568 18.4032 56.5134C19.9536 54.1489 20.7288 51.5203 20.7288 48.6274C20.7288 44.1672 18.2643 41.9371 13.3353 41.9371H11.6549L9.59816 52.2413C9.23073 54.1131 8.72438 55.5282 8.07913 56.4865C7.43387 57.4448 6.36293 58.3853 4.8663 59.3078ZM38.5593 53.7056H38.3174C37.3047 55.9536 36.0859 57.7897 34.6609 59.2137C33.236 60.6288 31.9007 61.3363 30.655 61.3363C28.764 61.3363 27.8185 60.1541 27.8185 57.7897C27.8185 55.1834 28.8581 52.6309 30.9373 50.1321C33.0881 47.5437 35.714 46.2495 38.8148 46.2495C40.0963 46.2495 41.4361 46.3033 42.8342 46.4108L41.8663 50.3873L40.5623 57.0239C40.3562 58.0628 40.2531 58.7346 40.2531 59.0391C40.2531 59.6033 40.5175 59.8854 41.0463 59.8854C41.9425 59.8854 43.2778 58.9002 45.0522 56.9299L44.8103 58.1793C42.8476 60.284 41.0866 61.3363 39.5272 61.3363C38.2278 61.3363 37.578 60.6601 37.578 59.3078C37.578 58.8599 37.6856 58.0987 37.9007 57.0239L38.5593 53.7056ZM39.6348 48.3319C38.5056 47.8303 37.3898 47.5795 36.2875 47.5795C34.6565 47.5795 33.3525 48.6095 32.3757 50.6694C31.2285 53.1055 30.655 55.2953 30.655 57.2389C30.655 58.645 31.0672 59.3481 31.8917 59.3481C32.6624 59.3481 33.7692 58.542 35.2121 56.9299C36.6639 55.3088 37.9365 53.4593 39.0298 51.3815L39.6348 48.3319ZM53.5266 59.5093L53.4594 61.3363L54.8977 61.0005L59.7103 55.3983C61.7625 53.016 63.0934 51.3546 63.7028 50.4142C64.3211 49.4738 64.6303 48.6274 64.6303 47.8751C64.6303 47.3377 64.4108 46.7421 63.9716 46.0883L61.0949 46.4108C61.6864 47.0646 61.9821 47.8124 61.9821 48.6543C61.9821 50.4455 60.3466 53.3115 57.0755 57.2523L55.9732 58.5823V57.8434C55.9732 50.0067 54.4183 46.0883 51.3085 46.0883C49.9105 46.0883 48.4004 47.1586 46.7783 49.2991L46.3884 51.2874C47.6341 49.1379 48.8171 48.0632 49.9373 48.0632C51.0396 48.0632 51.9134 49.0887 52.5587 51.1396C53.2039 53.1817 53.5266 55.9715 53.5266 59.5093ZM119.345 58.3673L119.547 57.3329C117.163 58.9719 115.142 59.7914 113.484 59.7914C111.566 59.7914 110.607 58.4838 110.607 55.8685L110.621 55.264C113.058 55.264 115.156 54.646 116.912 53.4101C118.669 52.1741 119.547 50.6963 119.547 48.9767C119.547 48.1169 119.3 47.4183 118.808 46.881C118.315 46.3436 117.669 46.0749 116.872 46.0749C114.676 46.0749 112.61 47.1899 110.675 49.4201C108.739 51.6412 107.771 54.0146 107.771 56.5403C107.771 57.9554 108.165 59.1107 108.954 60.0063C109.752 60.893 110.787 61.3363 112.059 61.3363C114.067 61.3363 116.495 60.3467 119.345 58.3673ZM115.353 52.8861C114.224 53.7549 112.655 54.2699 110.648 54.4311C110.836 52.6219 111.432 51.0053 112.436 49.5813C113.439 48.1483 114.479 47.4318 115.554 47.4318C116.549 47.4318 117.047 48.1169 117.047 49.4872C117.047 50.8754 116.482 52.0084 115.353 52.8861ZM125.158 61.1617L126.153 57.0239L127.457 50.4545C127.591 49.7917 127.658 49.2185 127.658 48.7349C127.658 47.9647 127.389 47.5795 126.852 47.5795C125.902 47.5795 124.544 48.5916 122.779 50.6157L123.021 49.4201C125.091 47.1899 126.888 46.0749 128.411 46.0749C129.702 46.0749 130.347 46.8138 130.347 48.2916C130.347 48.9454 130.266 49.6708 130.105 50.4679L129.46 53.7056H129.634C130.701 51.4666 131.96 49.6395 133.412 48.2244C134.873 46.8003 136.208 46.0883 137.418 46.0883C138.045 46.0883 138.605 46.2271 139.098 46.5048L137.31 48.923C136.781 48.5737 136.333 48.399 135.966 48.399C134.218 48.399 131.893 50.965 128.989 56.0969L128.008 61.0005L125.158 61.1617ZM151.242 53.7056H151.484L150.826 57.0239C150.611 58.0987 150.503 58.8599 150.503 59.3078C150.503 60.6601 151.153 61.3363 152.452 61.3363C154.012 61.3363 155.773 60.284 157.735 58.1793L157.977 56.9299C156.203 58.9002 154.867 59.8854 153.971 59.8854C153.442 59.8854 153.178 59.6033 153.178 59.0391C153.178 58.7346 153.281 58.0628 153.487 57.0239L154.791 50.3873L155.759 46.4108C154.361 46.3033 153.021 46.2495 151.74 46.2495C148.639 46.2495 146.013 47.5437 143.862 50.1321C141.783 52.6309 140.743 55.1834 140.743 57.7897C140.743 60.1541 141.689 61.3363 143.58 61.3363C144.826 61.3363 146.161 60.6288 147.586 59.2137C149.011 57.7897 150.23 55.9536 151.242 53.7056ZM149.212 47.5795C150.315 47.5795 151.431 47.8303 152.56 48.3319L151.955 51.3815C150.861 53.4593 149.589 55.3088 148.137 56.9299C146.694 58.542 145.587 59.3481 144.817 59.3481C143.992 59.3481 143.58 58.645 143.58 57.2389C143.58 55.2953 144.153 53.1055 145.301 50.6694C146.277 48.6095 147.581 47.5795 149.212 47.5795ZM161.666 61.1617L162.661 57.0239L163.978 50.3873C164.184 49.3574 164.287 48.6856 164.287 48.3722C164.287 47.8169 164.023 47.5392 163.494 47.5392C162.616 47.5392 161.281 48.5199 159.488 50.4814L159.73 49.2454C161.684 47.1407 163.445 46.0883 165.013 46.0883C166.304 46.0883 166.949 46.7645 166.949 48.1169C166.949 48.5737 166.846 49.3305 166.64 50.3873L165.981 53.7056H166.169C167.316 51.377 168.567 49.5275 169.92 48.1572C171.282 46.778 172.537 46.0883 173.684 46.0883C174.284 46.0883 174.786 46.3257 175.189 46.8003C175.602 47.275 175.808 47.8661 175.808 48.5737C175.808 49.0931 175.732 49.7156 175.579 50.4411L174.934 53.7056H175.122C176.117 51.4666 177.291 49.6395 178.644 48.2244C179.997 46.8003 181.239 46.0883 182.368 46.0883C183.954 46.0883 184.747 46.9302 184.747 48.614C184.747 49.1155 184.675 49.7335 184.532 50.4679L183.228 57.0239C183.022 58.0539 182.919 58.7256 182.919 59.0391C182.919 59.6033 183.183 59.8854 183.712 59.8854C184.599 59.8854 185.935 58.9002 187.718 56.9299L187.476 58.1793C185.522 60.284 183.761 61.3363 182.193 61.3363C180.894 61.3363 180.244 60.6601 180.244 59.3078C180.244 58.8689 180.351 58.1076 180.566 57.0239L181.87 50.4679C181.996 49.8768 182.059 49.4469 182.059 49.1782C182.059 48.4349 181.781 48.0632 181.225 48.0632C179.666 48.0632 177.407 50.7545 174.45 56.1372L173.442 61.0005L170.807 61.1617L172.918 50.4948C173.034 49.9037 173.092 49.4738 173.092 49.2051C173.092 48.4438 172.823 48.0632 172.286 48.0632C171.614 48.0632 170.619 48.8513 169.301 50.4276C167.993 52.0039 166.716 53.943 165.47 56.2447L164.489 61.0005L161.666 61.1617ZM231.141 53.7056H231.383L230.724 57.0239C230.509 58.0987 230.402 58.8599 230.402 59.3078C230.402 60.6601 231.051 61.3363 232.351 61.3363C233.91 61.3363 235.671 60.284 237.634 58.1793L237.876 56.9299C236.101 58.9002 234.766 59.8854 233.87 59.8854C233.341 59.8854 233.077 59.6033 233.077 59.0391C233.077 58.7346 233.18 58.0628 233.386 57.0239L234.69 50.3873L235.658 46.4108C234.26 46.3033 232.92 46.2495 231.638 46.2495C228.538 46.2495 225.912 47.5437 223.761 50.1321C221.682 52.6309 220.642 55.1834 220.642 57.7897C220.642 60.1541 221.588 61.3363 223.479 61.3363C224.724 61.3363 226.06 60.6288 227.485 59.2137C228.91 57.7897 230.128 55.9536 231.141 53.7056ZM229.111 47.5795C230.213 47.5795 231.329 47.8303 232.458 48.3319L231.853 51.3815C230.76 53.4593 229.488 55.3088 228.036 56.9299C226.593 58.542 225.486 59.3481 224.715 59.3481C223.891 59.3481 223.479 58.645 223.479 57.2389C223.479 55.2953 224.052 53.1055 225.199 50.6694C226.176 48.6095 227.48 47.5795 229.111 47.5795Z" fill="white"/>
</svg>
