<svg width="41" height="41" viewBox="0 0 41 41" fill="none" xmlns="http://www.w3.org/2000/svg">
<path d="M18.8333 35.2812H13.8333C12.9493 35.2812 12.1014 34.9301 11.4763 34.3049C10.8512 33.6798 10.5 32.832 10.5 31.9479V8.61458C10.5 7.73053 10.8512 6.88268 11.4763 6.25756C12.1014 5.63244 12.9493 5.28125 13.8333 5.28125H27.1667C28.0507 5.28125 28.8986 5.63244 29.5237 6.25756C30.1488 6.88268 30.5 7.73053 30.5 8.61458V16.9479M18.8333 6.94792H22.1667M30.1667 34.9762L26.5467 36.8729C26.4392 36.9288 26.3184 36.9538 26.1976 36.945C26.0768 36.9362 25.9608 36.894 25.8627 36.8231C25.7645 36.7522 25.6879 36.6555 25.6415 36.5436C25.5951 36.4317 25.5808 36.3092 25.6 36.1896L26.2917 32.1713L23.3633 29.3262C23.2759 29.2418 23.214 29.1344 23.1847 29.0164C23.1554 28.8984 23.1599 28.7746 23.1976 28.659C23.2353 28.5434 23.3048 28.4408 23.398 28.3628C23.4913 28.2848 23.6046 28.2346 23.725 28.2179L27.7717 27.6312L29.5817 23.9762C29.6358 23.8674 29.7192 23.7758 29.8226 23.7118C29.9259 23.6477 30.0451 23.6138 30.1667 23.6138C30.2882 23.6138 30.4074 23.6477 30.5108 23.7118C30.6141 23.7758 30.6975 23.8674 30.7517 23.9762L32.5617 27.6312L36.6083 28.2179C36.7284 28.2352 36.8412 28.2857 36.9341 28.3638C37.0269 28.4418 37.0961 28.5443 37.1337 28.6597C37.1713 28.775 37.176 28.8985 37.147 29.0163C37.1181 29.1341 37.0568 29.2415 36.97 29.3262L34.0417 32.1713L34.7317 36.1879C34.7524 36.3077 34.7391 36.4309 34.6933 36.5435C34.6475 36.6561 34.5711 36.7536 34.4727 36.8249C34.3742 36.8963 34.2578 36.9386 34.1365 36.9471C34.0153 36.9555 33.8941 36.9299 33.7867 36.8729L30.1667 34.9762Z" stroke="white" stroke-width="2" stroke-linecap="round" stroke-linejoin="round"/>
</svg>
