<svg width="41" height="41" viewBox="0 0 41 41" fill="none" xmlns="http://www.w3.org/2000/svg">
<g clip-path="url(#clip0_1165_6273)">
<path d="M27.5834 18.6146H13.4167C12.7334 18.6146 12.1667 19.1812 12.1667 19.8646C12.1667 20.5479 12.7334 21.1146 13.4167 21.1146H27.5834C28.2667 21.1146 28.8334 20.5479 28.8334 19.8646C28.8334 19.1812 28.2667 18.6146 27.5834 18.6146ZM27.5834 26.1146H13.4167C12.7334 26.1146 12.1667 26.6812 12.1667 27.3646C12.1667 28.0479 12.7334 28.6146 13.4167 28.6146H27.5834C28.2667 28.6146 28.8334 28.0479 28.8334 27.3646C28.8334 26.6812 28.2667 26.1146 27.5834 26.1146ZM12.1667 12.3646C12.1667 13.0479 12.7334 13.6146 13.4167 13.6146H25.8334L25.6834 13.1479C25.6 12.9146 25.4834 12.6979 25.3334 12.4979C25.2667 12.4146 25.2167 12.3479 25.15 12.2812C24.9 12.0312 24.6 11.8479 24.2834 11.7479L22.3334 11.1146H13.4167C12.7334 11.1146 12.1667 11.6812 12.1667 12.3646ZM33.5 22.4312L33.0667 21.1146L31.7334 20.6312C31.5834 20.5812 31.4667 20.4979 31.3334 20.4312V33.1979C31.3334 33.8812 30.7667 34.4479 30.0834 34.4479H10.9167C10.2334 34.4479 9.66669 33.8812 9.66669 33.1979V7.36456C9.66669 6.68123 10.2334 6.11456 10.9167 6.11456H20.1334C20.1834 6.01456 20.2167 5.89789 20.2834 5.79789C20.6834 5.23123 21.25 4.79789 21.9334 4.56456L24.2834 3.79789C24.4 3.74789 24.5334 3.68123 24.65 3.61456H10.9167C8.85002 3.61456 7.16669 5.29789 7.16669 7.36456V33.1979C7.16669 35.2646 8.85002 36.9479 10.9167 36.9479H30.0834C32.15 36.9479 33.8334 35.2646 33.8334 33.1979V23.0646C33.6962 22.8682 33.5842 22.6554 33.5 22.4312ZM26.9167 10.5312C27.05 10.6646 27.1834 10.8146 27.3 10.9812C27.6334 11.3979 27.8834 11.8812 28.05 12.3979L28.8 14.6979C28.8667 14.8812 28.9834 15.0312 29.1334 15.1312C29.2834 15.2479 29.4667 15.2979 29.65 15.2979C29.836 15.3016 30.0179 15.2429 30.1667 15.1312C30.3 15.0312 30.4167 14.8979 30.4834 14.7479V14.6979L31.25 12.3979C31.4834 11.6979 31.8667 11.0646 32.4 10.5479C32.9167 10.0312 33.55 9.63122 34.25 9.39789L36.55 8.64789C36.7334 8.58123 36.8834 8.46456 36.9834 8.31456C37.095 8.16577 37.1537 7.98389 37.15 7.79789C37.1537 7.61189 37.095 7.43002 36.9834 7.28122C36.8709 7.1338 36.7214 7.01879 36.55 6.94789H36.5L34.2 6.19789C33.5 5.96456 32.8667 5.58122 32.35 5.04789C31.8286 4.52863 31.4349 3.89532 31.2 3.19789L30.45 0.897892C30.3881 0.721496 30.2713 0.569607 30.1167 0.464559C29.9667 0.364559 29.7834 0.297892 29.6 0.297892C29.414 0.29422 29.2321 0.35289 29.0834 0.464559C28.9334 0.564559 28.8167 0.731225 28.75 0.897892L28 3.19789V3.24789C27.75 3.91456 27.3667 4.53123 26.8834 5.03123C26.3667 5.54789 25.75 5.94789 25.05 6.18123L22.75 6.93123C22.5667 6.99789 22.4167 7.11456 22.3167 7.26456C22.205 7.41335 22.1463 7.59523 22.15 7.78123C22.15 7.96456 22.2 8.14789 22.3167 8.29789C22.4167 8.44789 22.5834 8.56456 22.75 8.63123L25.05 9.38123C25.75 9.61456 26.3834 10.0146 26.9 10.5312H26.9167ZM40.1334 17.3146C40.24 17.3146 40.35 17.4146 40.4167 17.4979C40.4834 17.5812 40.5 17.6812 40.5 17.7812C40.5 17.8812 40.4834 17.9812 40.4167 18.0646C40.35 18.1479 40.2667 18.2146 40.1667 18.2479L38.8834 18.6646C38.5 18.7979 38.15 19.0146 37.85 19.2979C37.5667 19.5812 37.35 19.9312 37.2167 20.3312L36.8 21.5979C36.7667 21.6979 36.7 21.7812 36.6167 21.8479C36.5363 21.9123 36.4364 21.9473 36.3334 21.9473C36.2304 21.9473 36.1304 21.9123 36.05 21.8479C35.966 21.7841 35.9023 21.6972 35.8667 21.5979L35.45 20.3312C35.3167 19.9479 35.1 19.5812 34.8167 19.2979C34.5334 19.0146 34.1667 18.7812 33.7834 18.6646L32.5 18.2479C32.4007 18.2123 32.3138 18.1486 32.25 18.0646C32.1856 17.9842 32.1506 17.8842 32.1506 17.7812C32.1506 17.6782 32.1856 17.5783 32.25 17.4979C32.3167 17.4146 32.4 17.3479 32.5 17.3146L33.7834 16.8979C34.1667 16.7646 34.5167 16.5479 34.8 16.2646C35.0834 15.9812 35.3 15.6312 35.4167 15.2479L35.8334 13.9812C35.8667 13.8812 35.9334 13.7979 36.0167 13.7312C36.0971 13.6668 36.197 13.6318 36.3 13.6318C36.403 13.6318 36.5029 13.6668 36.5834 13.7312C36.6667 13.7979 36.7334 13.8812 36.7667 13.9812L37.1834 15.2479C37.3167 15.6312 37.5334 15.9812 37.8167 16.2812C38.1 16.5646 38.45 16.7812 38.85 16.9146L40.1334 17.3146Z" fill="white"/>
</g>
<defs>
<clipPath id="clip0_1165_6273">
<rect width="40" height="40" fill="white" transform="translate(0.5 0.28125)"/>
</clipPath>
</defs>
</svg>
