<svg width="41" height="41" viewBox="0 0 41 41" fill="none" xmlns="http://www.w3.org/2000/svg">
<g clip-path="url(#clip0_1165_6279)">
<path d="M0.9 22.0562H3.625H4.025V22.4562V22.7763C4.04324 23.4859 4.33769 24.1605 4.84578 24.6564C5.35497 25.1533 6.03836 25.4314 6.74989 25.4312L7.00355 25.4312L7.11177 25.6606L10.8614 33.6098C10.8615 33.6099 10.8615 33.61 10.8616 33.6101C11.0833 34.0774 11.4322 34.4726 11.8683 34.7505C12.3043 35.0283 12.8097 35.1776 13.3266 35.1812H14.8984C15.6168 35.1751 16.3036 34.8855 16.8096 34.3754C17.3159 33.865 17.6 33.1752 17.6 32.4562V26.1312V25.5406L18.1485 25.7598L33.3479 31.8346L0.9 22.0562ZM0.9 22.0562V15.3562H3.625H4.025V14.9562V14.7062C4.025 13.9835 4.3121 13.2904 4.82313 12.7794C5.33417 12.2683 6.02729 11.9812 6.75 11.9812H16.625C16.625 11.9812 16.625 11.9812 16.625 11.9812C17.0702 11.9813 17.5112 11.8951 17.9236 11.7276C17.9243 11.7273 17.9251 11.727 17.9258 11.7267L33.3466 5.65341L33.3466 5.65356L33.3571 5.64908C33.7676 5.47374 34.2149 5.40192 34.6596 5.43993C35.103 5.47783 35.5304 5.62375 35.9044 5.86492C36.2704 6.1131 36.5705 6.44662 36.7788 6.83673C36.9876 7.22779 37.0979 7.6639 37.1 8.10721C37.1 8.10748 37.1 8.10776 37.1 8.10803L37.1 29.3754C37.0867 29.8059 36.9716 30.2271 36.764 30.6045C36.5555 30.9835 36.2599 31.3074 35.9015 31.5495C35.4488 31.8545 34.9174 32.0218 34.3717 32.0312C34.0213 32.0309 33.6741 31.9643 33.3485 31.8348L0.9 22.0562ZM37.975 21.4017V16.0107C38.5497 16.096 39.0861 16.3636 39.5019 16.7794C40.0129 17.2904 40.3 17.9835 40.3 18.7062C40.3 19.4289 40.0129 20.1221 39.5019 20.6331C39.0861 21.0489 38.5497 21.3164 37.975 21.4017ZM15.275 14.7062V14.3062H14.875H6.75H6.35V14.7062V22.7812V23.1812H6.75H14.875H15.275V22.7812V14.7062ZM14.875 32.8562H15.275V32.4562V25.8312V25.4312H14.875H10.225H9.59835L9.86218 25.9996L12.9372 32.6246L13.0447 32.8562H13.3H14.875ZM18.743 23.5124L18.7597 23.5209L18.7771 23.5279L34.2271 29.6779L34.775 29.896V29.3062V8.10623V7.51648L34.2271 7.73459L18.7787 13.884C18.7784 13.8841 18.7781 13.8842 18.7778 13.8843C18.4994 13.9937 18.2121 14.079 17.9192 14.1395L17.6 14.2053V14.5312V22.7812V23.0769L17.8826 23.1636C18.179 23.2546 18.4669 23.3713 18.743 23.5124Z" fill="white" stroke="#232C60" stroke-width="0.8"/>
</g>
<defs>
<clipPath id="clip0_1165_6279">
<rect width="40" height="40" fill="white" transform="translate(0.5 0.28125)"/>
</clipPath>
</defs>
</svg>
