<svg width="171" height="20" viewBox="0 0 171 20" fill="none" xmlns="http://www.w3.org/2000/svg">
<path d="M7.79883 0.78125H11.2266V10.0684C11.2266 11.1751 10.9954 12.1126 10.5332 12.8809C10.071 13.6426 9.42318 14.2188 8.58984 14.6094C7.75651 15 6.77669 15.1953 5.65039 15.1953C4.53711 15.1953 3.55729 15 2.71094 14.6094C1.87109 14.2188 1.21354 13.6426 0.738281 12.8809C0.269531 12.1126 0.0351562 11.1751 0.0351562 10.0684V0.78125H3.47266V10.0684C3.47266 10.6543 3.55729 11.1328 3.72656 11.5039C3.89583 11.8685 4.14323 12.1354 4.46875 12.3047C4.79427 12.474 5.18815 12.5586 5.65039 12.5586C6.11914 12.5586 6.51302 12.474 6.83203 12.3047C7.15104 12.1354 7.39193 11.8685 7.55469 11.5039C7.71745 11.1328 7.79883 10.6543 7.79883 10.0684V0.78125ZM16.4609 6.68945V15H13.1699V4.43359H16.2559L16.4609 6.68945ZM16.0703 9.35547L15.2988 9.375C15.2988 8.56771 15.3965 7.84831 15.5918 7.2168C15.7871 6.57878 16.0638 6.03841 16.4219 5.5957C16.7799 5.15299 17.2064 4.81771 17.7012 4.58984C18.2025 4.35547 18.7591 4.23828 19.3711 4.23828C19.8594 4.23828 20.3053 4.3099 20.709 4.45312C21.1191 4.59635 21.4707 4.82747 21.7637 5.14648C22.0632 5.46549 22.291 5.88867 22.4473 6.41602C22.61 6.93685 22.6914 7.58138 22.6914 8.34961V15H19.3809V8.33984C19.3809 7.91667 19.3223 7.5944 19.2051 7.37305C19.0879 7.14518 18.9186 6.98893 18.6973 6.9043C18.4759 6.81966 18.2057 6.77734 17.8867 6.77734C17.5482 6.77734 17.2617 6.84245 17.0273 6.97266C16.793 7.10286 16.6042 7.28516 16.4609 7.51953C16.3242 7.7474 16.2233 8.01758 16.1582 8.33008C16.0996 8.64258 16.0703 8.98438 16.0703 9.35547ZM27.9941 4.43359V15H24.6934V4.43359H27.9941ZM24.498 1.70898C24.498 1.24023 24.6673 0.85612 25.0059 0.556641C25.3444 0.257161 25.7839 0.107422 26.3242 0.107422C26.8646 0.107422 27.304 0.257161 27.6426 0.556641C27.9811 0.85612 28.1504 1.24023 28.1504 1.70898C28.1504 2.17773 27.9811 2.56185 27.6426 2.86133C27.304 3.16081 26.8646 3.31055 26.3242 3.31055C25.7839 3.31055 25.3444 3.16081 25.0059 2.86133C24.6673 2.56185 24.498 2.17773 24.498 1.70898ZM35.5918 4.43359V6.71875H29.2246V4.43359H35.5918ZM30.5625 1.80664H33.8535V11.5527C33.8535 11.8327 33.8861 12.0508 33.9512 12.207C34.0163 12.3568 34.127 12.4642 34.2832 12.5293C34.446 12.5879 34.6608 12.6172 34.9277 12.6172C35.1165 12.6172 35.2728 12.6139 35.3965 12.6074C35.5202 12.5944 35.6374 12.5781 35.748 12.5586V14.9121C35.4681 15.0033 35.1751 15.0716 34.8691 15.1172C34.5632 15.1693 34.2376 15.1953 33.8926 15.1953C33.1895 15.1953 32.5872 15.0846 32.0859 14.8633C31.5911 14.6419 31.2135 14.2936 30.9531 13.8184C30.6927 13.3431 30.5625 12.7246 30.5625 11.9629V1.80664ZM40.1426 13.7598L42.877 4.43359H46.4121L42.1641 16.5723C42.0729 16.8392 41.9525 17.1257 41.8027 17.4316C41.653 17.7441 41.4479 18.0404 41.1875 18.3203C40.9271 18.6003 40.5918 18.8281 40.1816 19.0039C39.778 19.1797 39.2767 19.2676 38.6777 19.2676C38.3587 19.2676 38.1243 19.2513 37.9746 19.2188C37.8314 19.1927 37.61 19.1439 37.3105 19.0723V16.7188C37.3952 16.7188 37.4668 16.7188 37.5254 16.7188C37.5905 16.7188 37.6621 16.7188 37.7402 16.7188C38.0918 16.7188 38.3717 16.6829 38.5801 16.6113C38.7949 16.5397 38.9577 16.4355 39.0684 16.2988C39.1855 16.1621 39.2767 15.9961 39.3418 15.8008L40.1426 13.7598ZM39.4492 4.43359L41.5293 11.8262L41.8906 15.3125H39.6836L35.9238 4.43359H39.4492ZM50.4062 0.78125L52.7305 5.50781L55.0547 0.78125H58.9609L54.9961 7.83203L59.0684 15H55.123L52.7305 10.1855L50.3379 15H46.3828L50.4648 7.83203L46.4902 0.78125H50.4062ZM67.7695 0.78125V15H65.8848V0.78125H67.7695ZM76.1582 0.78125V15H74.3027V0.78125H76.1582ZM80.7285 0.78125V2.32422H69.7422V0.78125H80.7285ZM95.9922 10.4785H97.8672C97.7695 11.377 97.5124 12.181 97.0957 12.8906C96.679 13.6003 96.0898 14.1634 95.3281 14.5801C94.5664 14.9902 93.6159 15.1953 92.4766 15.1953C91.6432 15.1953 90.8848 15.0391 90.2012 14.7266C89.5241 14.4141 88.9414 13.9714 88.4531 13.3984C87.9648 12.819 87.5872 12.1257 87.3203 11.3184C87.0599 10.5046 86.9297 9.59961 86.9297 8.60352V7.1875C86.9297 6.19141 87.0599 5.28971 87.3203 4.48242C87.5872 3.66862 87.9681 2.97201 88.4629 2.39258C88.9642 1.81315 89.5664 1.36719 90.2695 1.05469C90.9727 0.742188 91.7637 0.585938 92.6426 0.585938C93.7168 0.585938 94.625 0.78776 95.3672 1.19141C96.1094 1.59505 96.6855 2.15495 97.0957 2.87109C97.5124 3.58073 97.7695 4.4043 97.8672 5.3418H95.9922C95.901 4.67773 95.7318 4.10807 95.4844 3.63281C95.237 3.15104 94.8854 2.77995 94.4297 2.51953C93.974 2.25911 93.3783 2.12891 92.6426 2.12891C92.0111 2.12891 91.4544 2.24935 90.9727 2.49023C90.4974 2.73112 90.097 3.07292 89.7715 3.51562C89.4525 3.95833 89.2116 4.48893 89.0488 5.10742C88.8861 5.72591 88.8047 6.41276 88.8047 7.16797V8.60352C88.8047 9.30013 88.8763 9.95443 89.0195 10.5664C89.1693 11.1784 89.3939 11.7155 89.6934 12.1777C89.9928 12.64 90.3737 13.0046 90.8359 13.2715C91.2982 13.5319 91.8451 13.6621 92.4766 13.6621C93.2773 13.6621 93.9154 13.5352 94.3906 13.2812C94.8659 13.0273 95.224 12.6628 95.4648 12.1875C95.7122 11.7122 95.888 11.1426 95.9922 10.4785ZM99.6836 9.83398V9.60938C99.6836 8.84766 99.7943 8.14128 100.016 7.49023C100.237 6.83268 100.556 6.26302 100.973 5.78125C101.389 5.29297 101.894 4.91536 102.486 4.64844C103.079 4.375 103.743 4.23828 104.479 4.23828C105.221 4.23828 105.888 4.375 106.48 4.64844C107.079 4.91536 107.587 5.29297 108.004 5.78125C108.427 6.26302 108.749 6.83268 108.971 7.49023C109.192 8.14128 109.303 8.84766 109.303 9.60938V9.83398C109.303 10.5957 109.192 11.3021 108.971 11.9531C108.749 12.6042 108.427 13.1738 108.004 13.6621C107.587 14.1439 107.083 14.5215 106.49 14.7949C105.904 15.0618 105.24 15.1953 104.498 15.1953C103.756 15.1953 103.089 15.0618 102.496 14.7949C101.904 14.5215 101.396 14.1439 100.973 13.6621C100.556 13.1738 100.237 12.6042 100.016 11.9531C99.7943 11.3021 99.6836 10.5957 99.6836 9.83398ZM101.49 9.60938V9.83398C101.49 10.3613 101.552 10.8594 101.676 11.3281C101.799 11.7904 101.985 12.2005 102.232 12.5586C102.486 12.9167 102.802 13.1999 103.18 13.4082C103.557 13.61 103.997 13.7109 104.498 13.7109C104.993 13.7109 105.426 13.61 105.797 13.4082C106.174 13.1999 106.487 12.9167 106.734 12.5586C106.982 12.2005 107.167 11.7904 107.291 11.3281C107.421 10.8594 107.486 10.3613 107.486 9.83398V9.60938C107.486 9.08854 107.421 8.59701 107.291 8.13477C107.167 7.66602 106.979 7.2526 106.725 6.89453C106.477 6.52995 106.165 6.24349 105.787 6.03516C105.416 5.82682 104.98 5.72266 104.479 5.72266C103.984 5.72266 103.548 5.82682 103.17 6.03516C102.799 6.24349 102.486 6.52995 102.232 6.89453C101.985 7.2526 101.799 7.66602 101.676 8.13477C101.552 8.59701 101.49 9.08854 101.49 9.60938ZM113.365 6.5332V15H111.549V4.43359H113.268L113.365 6.5332ZM112.994 9.31641L112.154 9.28711C112.161 8.56445 112.255 7.89714 112.438 7.28516C112.62 6.66667 112.89 6.12956 113.248 5.67383C113.606 5.2181 114.052 4.86654 114.586 4.61914C115.12 4.36523 115.738 4.23828 116.441 4.23828C116.936 4.23828 117.392 4.3099 117.809 4.45312C118.225 4.58984 118.587 4.80794 118.893 5.10742C119.199 5.4069 119.436 5.79102 119.605 6.25977C119.775 6.72852 119.859 7.29492 119.859 7.95898V15H118.053V8.04688C118.053 7.49349 117.958 7.05078 117.77 6.71875C117.587 6.38672 117.327 6.14583 116.988 5.99609C116.65 5.83984 116.253 5.76172 115.797 5.76172C115.263 5.76172 114.817 5.85612 114.459 6.04492C114.101 6.23372 113.814 6.49414 113.6 6.82617C113.385 7.1582 113.229 7.53906 113.131 7.96875C113.04 8.39193 112.994 8.84115 112.994 9.31641ZM119.84 8.32031L118.629 8.69141C118.635 8.11198 118.73 7.55534 118.912 7.02148C119.101 6.48763 119.371 6.01237 119.723 5.5957C120.081 5.17904 120.52 4.85026 121.041 4.60938C121.562 4.36198 122.158 4.23828 122.828 4.23828C123.395 4.23828 123.896 4.31315 124.332 4.46289C124.775 4.61263 125.146 4.84375 125.445 5.15625C125.751 5.46224 125.982 5.85612 126.139 6.33789C126.295 6.81966 126.373 7.39258 126.373 8.05664V15H124.557V8.03711C124.557 7.44466 124.462 6.98568 124.273 6.66016C124.091 6.32812 123.831 6.09701 123.492 5.9668C123.16 5.83008 122.763 5.76172 122.301 5.76172C121.904 5.76172 121.552 5.83008 121.246 5.9668C120.94 6.10352 120.683 6.29232 120.475 6.5332C120.266 6.76758 120.107 7.03776 119.996 7.34375C119.892 7.64974 119.84 7.97526 119.84 8.32031ZM130.914 6.46484V19.0625H129.098V4.43359H130.758L130.914 6.46484ZM138.033 9.62891V9.83398C138.033 10.6022 137.942 11.3151 137.76 11.9727C137.577 12.6237 137.311 13.1901 136.959 13.6719C136.614 14.1536 136.188 14.528 135.68 14.7949C135.172 15.0618 134.589 15.1953 133.932 15.1953C133.261 15.1953 132.669 15.0846 132.154 14.8633C131.64 14.6419 131.204 14.3197 130.846 13.8965C130.488 13.4733 130.201 12.9655 129.986 12.373C129.778 11.7806 129.635 11.1133 129.557 10.3711V9.27734C129.635 8.49609 129.781 7.79622 129.996 7.17773C130.211 6.55924 130.494 6.0319 130.846 5.5957C131.204 5.15299 131.637 4.81771 132.145 4.58984C132.652 4.35547 133.238 4.23828 133.902 4.23828C134.566 4.23828 135.156 4.36849 135.67 4.62891C136.184 4.88281 136.617 5.2474 136.969 5.72266C137.32 6.19792 137.584 6.76758 137.76 7.43164C137.942 8.08919 138.033 8.82161 138.033 9.62891ZM136.217 9.83398V9.62891C136.217 9.10156 136.161 8.60677 136.051 8.14453C135.94 7.67578 135.768 7.26562 135.533 6.91406C135.305 6.55599 135.012 6.27604 134.654 6.07422C134.296 5.86589 133.87 5.76172 133.375 5.76172C132.919 5.76172 132.522 5.83984 132.184 5.99609C131.852 6.15234 131.568 6.36393 131.334 6.63086C131.1 6.89128 130.908 7.19076 130.758 7.5293C130.615 7.86133 130.507 8.20638 130.436 8.56445V11.0938C130.566 11.5495 130.748 11.9792 130.982 12.3828C131.217 12.7799 131.529 13.1022 131.92 13.3496C132.311 13.5905 132.802 13.7109 133.395 13.7109C133.883 13.7109 134.303 13.61 134.654 13.4082C135.012 13.1999 135.305 12.9167 135.533 12.5586C135.768 12.2005 135.94 11.7904 136.051 11.3281C136.161 10.8594 136.217 10.3613 136.217 9.83398ZM146.568 13.1934V7.75391C146.568 7.33724 146.484 6.97591 146.314 6.66992C146.152 6.35742 145.904 6.11654 145.572 5.94727C145.24 5.77799 144.83 5.69336 144.342 5.69336C143.886 5.69336 143.486 5.77148 143.141 5.92773C142.802 6.08398 142.535 6.28906 142.34 6.54297C142.151 6.79688 142.057 7.07031 142.057 7.36328H140.25C140.25 6.98568 140.348 6.61133 140.543 6.24023C140.738 5.86914 141.018 5.53385 141.383 5.23438C141.754 4.92839 142.197 4.6875 142.711 4.51172C143.232 4.32943 143.811 4.23828 144.449 4.23828C145.217 4.23828 145.895 4.36849 146.48 4.62891C147.073 4.88932 147.535 5.2832 147.867 5.81055C148.206 6.33138 148.375 6.98568 148.375 7.77344V12.6953C148.375 13.0469 148.404 13.4212 148.463 13.8184C148.528 14.2155 148.622 14.5573 148.746 14.8438V15H146.861C146.77 14.7917 146.699 14.515 146.646 14.1699C146.594 13.8184 146.568 13.4928 146.568 13.1934ZM146.881 8.59375L146.9 9.86328H145.074C144.56 9.86328 144.101 9.9056 143.697 9.99023C143.294 10.0684 142.955 10.1888 142.682 10.3516C142.408 10.5143 142.2 10.7194 142.057 10.9668C141.913 11.2077 141.842 11.4909 141.842 11.8164C141.842 12.1484 141.917 12.4512 142.066 12.7246C142.216 12.998 142.441 13.2161 142.74 13.3789C143.046 13.5352 143.421 13.6133 143.863 13.6133C144.417 13.6133 144.905 13.4961 145.328 13.2617C145.751 13.0273 146.087 12.7409 146.334 12.4023C146.588 12.0638 146.725 11.735 146.744 11.416L147.516 12.2852C147.47 12.5586 147.346 12.8613 147.145 13.1934C146.943 13.5254 146.673 13.8444 146.334 14.1504C146.002 14.4499 145.605 14.7005 145.143 14.9023C144.687 15.0977 144.173 15.1953 143.6 15.1953C142.883 15.1953 142.255 15.0553 141.715 14.7754C141.181 14.4954 140.764 14.1211 140.465 13.6523C140.172 13.1771 140.025 12.6465 140.025 12.0605C140.025 11.4941 140.136 10.9961 140.357 10.5664C140.579 10.1302 140.898 9.76888 141.314 9.48242C141.731 9.18945 142.232 8.9681 142.818 8.81836C143.404 8.66862 144.059 8.59375 144.781 8.59375H146.881ZM153.023 6.68945V15H151.217V4.43359H152.926L153.023 6.68945ZM152.594 9.31641L151.842 9.28711C151.848 8.56445 151.956 7.89714 152.164 7.28516C152.372 6.66667 152.665 6.12956 153.043 5.67383C153.421 5.2181 153.87 4.86654 154.391 4.61914C154.918 4.36523 155.501 4.23828 156.139 4.23828C156.66 4.23828 157.128 4.3099 157.545 4.45312C157.962 4.58984 158.316 4.8112 158.609 5.11719C158.909 5.42318 159.137 5.82031 159.293 6.30859C159.449 6.79036 159.527 7.37956 159.527 8.07617V15H157.711V8.05664C157.711 7.50326 157.63 7.06055 157.467 6.72852C157.304 6.38997 157.066 6.14583 156.754 5.99609C156.441 5.83984 156.057 5.76172 155.602 5.76172C155.152 5.76172 154.742 5.85612 154.371 6.04492C154.007 6.23372 153.691 6.49414 153.424 6.82617C153.163 7.1582 152.958 7.53906 152.809 7.96875C152.665 8.39193 152.594 8.84115 152.594 9.31641ZM165.24 13.9062L168.18 4.43359H170.113L165.875 16.6309C165.777 16.8913 165.647 17.1712 165.484 17.4707C165.328 17.7767 165.126 18.0664 164.879 18.3398C164.632 18.6133 164.332 18.8346 163.98 19.0039C163.635 19.1797 163.222 19.2676 162.74 19.2676C162.597 19.2676 162.415 19.248 162.193 19.209C161.972 19.1699 161.816 19.1374 161.725 19.1113L161.715 17.6465C161.767 17.653 161.848 17.6595 161.959 17.666C162.076 17.679 162.158 17.6855 162.203 17.6855C162.613 17.6855 162.962 17.6302 163.248 17.5195C163.535 17.4154 163.775 17.2363 163.971 16.9824C164.173 16.735 164.345 16.3932 164.488 15.957L165.24 13.9062ZM163.082 4.43359L165.826 12.6367L166.295 14.541L164.996 15.2051L161.109 4.43359H163.082Z" fill="white"/>
</svg>
