<svg width="129" height="16" viewBox="0 0 129 16" fill="none" xmlns="http://www.w3.org/2000/svg">
<path d="M2.86848 0.367938V10.1093C2.86848 11.1783 3.14909 12.0335 3.71032 12.6749C4.28491 13.3163 5.12676 13.637 6.23586 13.637C6.99752 13.637 7.63893 13.4833 8.16007 13.176C8.69458 12.8687 9.09545 12.4411 9.36271 11.8932C9.64332 11.332 9.78363 10.6772 9.78363 9.92889V0.367938H11.6277V9.66832C11.6277 10.8977 11.4005 11.9266 10.9462 12.7551C10.4918 13.5836 9.84376 14.2049 9.00192 14.6192C8.17343 15.0334 7.19796 15.2405 6.0755 15.2405C4.325 15.2405 2.9687 14.7795 2.00659 13.8575C1.04448 12.9221 0.563426 11.5792 0.563426 9.82867V1.65075L0.262767 0.367938H2.86848ZM23.2939 0.387981L29.4073 9.74849C29.5409 9.94893 29.6745 10.1561 29.8081 10.3699C29.9418 10.5837 30.0754 10.7908 30.209 10.9912C30.1956 10.7507 30.1756 10.5102 30.1489 10.2696C30.1355 10.0291 30.1288 9.78858 30.1288 9.54805V0.387981H31.9528V15.1002H30.3493L23.2738 4.2765C23.1536 4.07606 23.0266 3.87562 22.893 3.67518C22.7594 3.46138 22.6257 3.26094 22.4921 3.07387C22.5188 3.28767 22.5389 3.50815 22.5522 3.73532C22.5656 3.94912 22.5723 4.1696 22.5723 4.39677V15H20.7483V1.67079L20.4677 0.387981H23.2939ZM40.7895 0.367938H49.0877V2.01154H43.3151V6.66173H47.845V8.28529H43.3151V15H41.0702V1.65075L40.7895 0.367938ZM57.0204 0.367938H59.546V15H57.301V1.65075C57.301 1.63739 57.2743 1.53717 57.2209 1.35009C57.1808 1.14965 57.1407 0.949211 57.1006 0.748772C57.0605 0.53497 57.0338 0.408025 57.0204 0.367938ZM71.2231 0.387981L77.3365 9.74849C77.4701 9.94893 77.6038 10.1561 77.7374 10.3699C77.871 10.5837 78.0046 10.7908 78.1383 10.9912C78.1249 10.7507 78.1048 10.5102 78.0781 10.2696C78.0648 10.0291 78.0581 9.78858 78.0581 9.54805V0.387981H79.8821V15.1002H78.2786L71.2031 4.2765C71.0828 4.07606 70.9558 3.87562 70.8222 3.67518C70.6886 3.46138 70.555 3.26094 70.4213 3.07387C70.4481 3.28767 70.4681 3.50815 70.4815 3.73532C70.4948 3.94912 70.5015 4.1696 70.5015 4.39677V15H68.6775V1.67079L68.3969 0.387981H71.2231ZM119.38 0.367938L128.099 15H125.493L116.794 0.367938H119.38ZM125.333 0.367938H127.658L118.779 15H116.454L125.333 0.367938Z" fill="#7D7D7D"/>
<path d="M88.4783 0.327849H91.5249V15H88.7589V1.55053C88.7589 1.53717 88.7321 1.43695 88.6787 1.24987C88.6386 1.06279 88.5985 0.869035 88.5584 0.668596C88.5183 0.468157 88.4916 0.354575 88.4783 0.327849ZM103.142 2.3122H99.073V0.327849H110.137V2.3122H106.008V15H103.142V2.3122Z" fill="white"/>
</svg>
