<svg width="287" height="48" viewBox="0 0 287 48" fill="none" xmlns="http://www.w3.org/2000/svg">
<path d="M79.668 6.17981L87.6445 19.7211L95.6102 6.17981H102.733V37.428H96.0423V16.9107L89.0036 29.0189H86.2851L79.2889 16.9107V37.428H72.5874V6.17981H79.668Z" fill="white"/>
<path fill-rule="evenodd" clip-rule="evenodd" d="M109.93 34.6402C114.362 39.2493 121.483 39.2493 125.915 34.6402C128.042 32.432 129.215 29.3998 129.16 26.2533C129.186 23.1045 128.01 20.0769 125.898 17.8502C123.786 15.6236 120.915 14.3846 117.928 14.4115C114.939 14.3816 112.065 15.6192 109.951 17.8462C107.836 20.0731 106.66 23.1025 106.685 26.2533C106.635 29.3988 107.808 32.429 109.93 34.6402ZM121.594 30.2524C120.645 31.318 119.313 31.9111 117.927 31.8852C116.53 31.9234 115.184 31.3292 114.229 30.2524C113.245 29.1832 112.71 27.7425 112.743 26.2533C112.717 24.7873 113.248 23.3712 114.218 22.3207C115.176 21.25 116.51 20.6427 117.906 20.6427C119.302 20.6427 120.636 21.25 121.594 22.3207C123.604 24.5401 123.604 28.033 121.594 30.2524Z" fill="white"/>
<path d="M147.642 37.4286V25.498C147.701 24.3118 147.382 23.139 146.736 22.1655C146.078 21.3196 145.074 20.8603 144.038 20.9325C142.998 20.9972 142.002 21.4052 141.194 22.0988C140.172 22.8653 139.352 23.8937 138.812 25.087V37.4286H132.49V15.0782H138.812V18.2553C140.653 15.8003 143.496 14.4213 146.462 14.545C148.557 14.4558 150.577 15.3754 151.952 17.0445C153.371 18.8621 154.103 21.1686 154.006 23.5207V37.4286H147.642Z" fill="white"/>
<path fill-rule="evenodd" clip-rule="evenodd" d="M178.957 28.0859C179.078 27.4086 179.134 26.7201 179.125 26.0309C179.277 22.8905 178.199 19.8221 176.143 17.544C174.009 15.4151 171.144 14.2958 168.209 14.4447C165.235 14.3962 162.38 15.6752 160.349 17.9661C158.225 20.2223 157.055 23.2861 157.104 26.4642C157.046 29.5985 158.248 32.6122 160.412 34.7623C162.548 36.9629 165.434 38.1643 168.42 38.0948C171.696 38.2662 174.916 37.1544 177.461 34.9732L175.353 30.9519C173.574 32.1578 171.494 32.7766 169.379 32.7294C166.617 32.9191 164.144 30.9405 163.573 28.0859H178.957ZM171.517 20.932C172.399 21.7062 172.993 22.7844 173.193 23.9758L163.351 23.9869C163.79 21.5257 165.855 19.7619 168.23 19.8212C169.416 19.7707 170.58 20.1642 171.517 20.932Z" fill="white"/>
<path d="M204.318 15.0778L191.179 46.5483H184.772L188.418 37.3837L179.43 15.0778H186.384L191.769 29.1634L197.448 15.0778H204.318Z" fill="white"/>
<path d="M233.074 30.952C235.952 31.0105 238.776 30.134 241.166 28.4415L244.094 34.6179C240.858 36.9682 237.003 38.1847 233.074 38.0947C228.269 38.0947 224.444 36.5544 221.598 33.4737C218.756 30.3334 217.235 26.1152 217.385 21.7764C217.243 17.449 218.764 13.2445 221.598 10.1124C224.408 7.00938 228.234 5.4616 233.074 5.46901C237.009 5.39011 240.868 6.62669 244.094 9.00152L241.166 15.1668C238.776 13.4775 235.95 12.6049 233.074 12.6673C230.785 12.5747 228.574 13.5452 227.025 15.3223C225.493 17.0779 224.665 19.3913 224.719 21.7764C224.665 24.1715 225.493 26.4954 227.025 28.2637C228.568 30.0544 230.781 31.0378 233.074 30.952Z" fill="white"/>
<path fill-rule="evenodd" clip-rule="evenodd" d="M247.846 36.4625C249.398 37.634 251.283 38.2103 253.188 38.0955C254.509 38.0738 255.809 37.7396 256.993 37.1179C258.371 36.4093 259.591 35.4025 260.576 34.1629V37.429H266.897V22.099C267.018 19.8231 266.003 17.6456 264.22 16.356C261.977 14.9285 259.376 14.2507 256.76 14.412C253.076 14.28 249.474 15.5674 246.624 18.0334L249.723 21.8769C250.734 21.121 251.854 20.5398 253.041 20.1551C254.167 19.7438 255.347 19.5226 256.539 19.4997C259.226 19.4997 260.564 20.6995 260.564 23.0767V24.1874C258.633 24.1737 256.701 24.27 254.78 24.4764C253.226 24.6693 251.695 25.0419 250.216 25.5872C248.927 25.9876 247.786 26.7985 246.95 27.9089C246.21 29.0336 245.84 30.3842 245.897 31.7525C245.794 33.561 246.518 35.3125 247.846 36.4625ZM260.563 30.1861C259.103 32.3635 257.481 33.452 255.695 33.452C254.967 33.4999 254.244 33.28 253.651 32.83C253.148 32.4069 252.865 31.7543 252.893 31.0748C252.867 30.3732 253.092 29.6868 253.526 29.153C254.055 28.5726 254.744 28.1837 255.496 28.0422C256.259 27.8533 257.033 27.7196 257.815 27.6423C258.456 27.5757 259.383 27.509 260.563 27.509V30.1861Z" fill="white"/>
<path d="M279.509 20.5773V29.0642C279.44 29.9899 279.734 30.9049 280.321 31.5969C280.889 32.1609 281.649 32.4575 282.427 32.4191C283.657 32.4274 284.879 32.2015 286.031 31.7525V36.8958C284.19 37.6169 282.232 37.9491 280.268 37.8732C275.547 37.8732 273.188 35.2516 273.188 30.0084V20.5773H269.152V15.0785H273.188V9.84644H279.509V15.0785H286V20.5773H279.509Z" fill="white"/>
<path fill-rule="evenodd" clip-rule="evenodd" d="M0 25.8201C0 36.0844 11.5905 44.4712 25.7835 44.4712C40.0397 44.4712 51.567 36.0844 51.6092 25.7867C51.5379 24.3911 51.3723 23.0029 51.114 21.6322C50.9874 20.7879 49.3753 10.0237 46.0035 2.84755C45.3963 1.31081 44.0519 0.237208 42.4843 0.0370871L42.458 0.0345944C41.3801 -0.0682997 38.2912 -0.363113 31.9476 7.71309C27.8761 7.00803 23.7225 7.00803 19.6511 7.71309C13.2573 -0.400146 10.1901 -0.0764487 9.12577 0.0358778L9.11431 0.0370871C7.5394 0.243447 6.19331 1.33117 5.59504 2.88087C2.10735 10.1903 0.547912 21.2433 0.495229 21.6322C0.235434 23.0138 0.0699329 24.4134 0 25.8201ZM9.48337 3.814H9.59926C10.7689 3.814 13.4873 5.66912 17.5229 10.9679C17.9404 11.5128 18.6096 11.7693 19.2615 11.6344C23.5664 10.7569 27.9908 10.7569 32.2955 11.6344C32.9497 11.772 33.6221 11.5101 34.034 10.9568C38.1961 5.48028 40.9461 3.69179 42.063 3.814L42.0656 3.81426C42.1727 3.8255 42.4344 3.85299 42.7584 4.54716C45.9513 11.3234 47.5423 22.1765 47.5423 22.2541V22.3319C47.7642 23.4791 47.9119 24.6407 47.9847 25.809C47.9847 33.996 38.017 40.661 25.7732 40.661C13.5295 40.661 3.56171 33.996 3.56171 25.809C3.63374 24.615 3.78157 23.4274 4.00425 22.2541C4.0051 22.2497 4.00853 22.2277 4.01452 22.1892C4.1572 21.2759 5.75454 11.0498 8.78794 4.54716C9.11459 3.814 9.378 3.814 9.48337 3.814Z" fill="white"/>
<path d="M37.2054 22.4546C37.7203 22.373 38.1754 22.0577 38.4511 21.592C38.7267 21.1261 38.7952 20.5565 38.6384 20.033C38.1316 18.3776 36.9785 17.0291 35.4689 16.3268C33.9594 15.6245 32.2372 15.6351 30.7358 16.3561C29.1402 17.1636 28.0358 18.7619 27.7959 20.6106V20.6884C27.7959 20.8329 27.7328 22.0882 28.6074 22.4102C28.7958 22.4856 28.9959 22.5233 29.1975 22.5213C29.7968 22.5145 30.3536 22.1939 30.683 21.666C31.2001 20.7734 32.0708 20.1737 33.0538 20.033C33.9178 19.922 34.982 21.1438 35.7302 21.9325C36.1183 22.3388 36.6634 22.5318 37.2054 22.4546Z" fill="white"/>
<path d="M21.9688 22.5095C22.1668 22.5107 22.3634 22.4729 22.5483 22.3984C23.4229 22.0764 23.4018 20.8432 23.3912 20.61C23.1462 18.7477 22.0241 17.1425 20.4094 16.3443C18.6656 15.5518 16.669 15.6754 15.0251 16.6776C13.8461 17.4461 12.959 18.6249 12.5173 20.0101C12.3532 20.5365 12.4179 21.1125 12.6943 21.5838C12.9706 22.0551 13.4304 22.3736 13.9503 22.454C14.5125 22.5364 15.0786 22.3348 15.4782 21.9096C16.1736 21.132 17.2273 19.9546 18.1018 20.0656C19.0876 20.198 19.9654 20.7891 20.4938 21.6764C20.822 22.1972 21.3759 22.5099 21.9688 22.5095Z" fill="white"/>
<path d="M42.5363 28.63L36.6568 28.2856H36.5408C35.9347 28.3611 35.4831 28.9114 35.4995 29.5546C35.516 30.1979 35.995 30.7219 36.6041 30.7629H36.6673L42.5363 30.4184C42.9684 30.3677 43.295 29.9826 43.295 29.5242C43.295 29.066 42.9684 28.6809 42.5363 28.63Z" fill="white"/>
<path d="M40.1872 32.4409L36.8049 31.7412H36.6468C36.3497 31.7097 36.0537 31.8126 35.8326 32.0246C35.6117 32.2363 35.4863 32.5371 35.4877 32.8521C35.466 33.163 35.5693 33.4695 35.7723 33.6962C35.9747 33.9193 36.2492 34.0541 36.5416 34.074L39.9869 34.2294C40.3961 34.223 40.7462 33.9185 40.83 33.4964C40.9136 33.0064 40.6085 32.5363 40.145 32.4409H40.1872Z" fill="white"/>
<path d="M36.3939 25.0318C35.7974 25.0931 35.361 25.6525 35.4193 26.2815C35.4774 26.9102 36.0082 27.3703 36.6047 27.309H36.8047L40.1872 26.6314C40.6066 26.5533 40.9049 26.1579 40.8826 25.7093C40.8762 25.471 40.7771 25.2461 40.6085 25.0873C40.4376 24.9279 40.2149 24.8443 39.987 24.854L36.5414 25.0318H36.3939Z" fill="white"/>
<path d="M10.9894 26.6091L14.3822 27.2866H14.5192H14.5824C14.8523 27.2886 15.1125 27.1811 15.3095 26.9866C15.5262 26.7864 15.6556 26.5014 15.6677 26.1981C15.6944 25.8864 15.5953 25.5775 15.3948 25.347C15.1942 25.1166 14.9107 24.9858 14.6141 24.9872L11.1685 24.8095C10.7423 24.79 10.3663 25.1012 10.2834 25.5427C10.2382 25.7751 10.2879 26.0172 10.4204 26.209C10.546 26.4232 10.7536 26.5693 10.9894 26.6091Z" fill="white"/>
<path d="M14.5086 28.2856L8.62903 28.6299C8.30266 28.6522 8.01706 28.8692 7.89366 29.1884C7.77026 29.5079 7.83081 29.8733 8.04952 30.1296C8.20014 30.3074 8.41358 30.4118 8.63958 30.4184L14.498 30.7629H14.635C14.946 30.743 15.2373 30.5955 15.4463 30.3519C15.6598 30.1081 15.7701 29.7833 15.7519 29.4521C15.7123 28.7689 15.1568 28.2478 14.5086 28.2856Z" fill="white"/>
<path d="M14.3623 31.7412L10.9906 32.441C10.5711 32.519 10.2727 32.9145 10.2951 33.3631C10.3174 33.8443 10.6915 34.2241 11.1486 34.2294L14.5836 34.074H14.7627C15.0492 34.0065 15.3012 33.8282 15.4687 33.574C15.6292 33.3149 15.6895 33.001 15.6373 32.6965C15.525 32.0684 14.9618 31.6464 14.3623 31.7412Z" fill="white"/>
<path d="M29.5556 31.1413C29.1541 30.9172 28.6858 30.8654 28.249 30.997C28.0258 31.0678 27.7846 31.0356 27.5852 30.908C27.455 30.791 27.3599 30.6367 27.3113 30.4638L27.9013 29.3528C28.3027 28.6487 28.3027 27.7688 27.9013 27.0646C27.5141 26.3843 26.8203 25.9638 26.068 25.9536H25.0143C24.1766 25.8238 23.3467 26.235 22.9068 26.9979C22.5098 27.6993 22.5098 28.5738 22.9068 29.2752L23.4442 30.3081L23.5075 30.4192C23.4611 30.5754 23.3734 30.7142 23.2545 30.8193C23.0591 30.9657 22.8109 31.0107 22.5802 30.9415C22.134 30.797 21.6514 30.8491 21.2422 31.0858C20.8368 31.3288 20.535 31.7264 20.3991 32.1967C20.2534 32.6847 20.3028 33.2144 20.5362 33.663C20.7563 34.1018 21.1369 34.4266 21.5899 34.5628C21.9963 34.6919 22.419 34.7556 22.8438 34.7516C23.7617 34.7596 24.6569 34.4515 25.3935 33.8741C26.1345 34.4499 27.0337 34.7542 27.954 34.7405C28.3879 34.7381 28.8198 34.6784 29.2395 34.5628C29.6973 34.4302 30.0802 34.0992 30.2932 33.6518C30.5071 33.2209 30.5561 32.72 30.4301 32.2523C30.3021 31.7674 29.9839 31.3634 29.5556 31.1413Z" fill="white"/>
</svg>
