<svg width="41" height="41" viewBox="0 0 41 41" fill="none" xmlns="http://www.w3.org/2000/svg">
<path d="M5.5 20.2812C5.5 22.2511 5.88799 24.2016 6.64181 26.0215C7.39563 27.8414 8.50052 29.495 9.8934 30.8878C11.2863 32.2807 12.9399 33.3856 14.7597 34.1394C16.5796 34.8933 18.5302 35.2812 20.5 35.2812C22.4698 35.2812 24.4204 34.8933 26.2403 34.1394C28.0601 33.3856 29.7137 32.2807 31.1066 30.8878C32.4995 29.495 33.6044 27.8414 34.3582 26.0215C35.112 24.2016 35.5 22.2511 35.5 20.2812C35.5 18.3114 35.112 16.3609 34.3582 14.541C33.6044 12.7211 32.4995 11.0675 31.1066 9.67465C29.7137 8.28177 28.0601 7.17688 26.2403 6.42306C24.4204 5.66924 22.4698 5.28125 20.5 5.28125C18.5302 5.28125 16.5796 5.66924 14.7597 6.42306C12.9399 7.17688 11.2863 8.28177 9.8934 9.67465C8.50052 11.0675 7.39563 12.7211 6.64181 14.541C5.88799 16.3609 5.5 18.3114 5.5 20.2812Z" stroke="white" stroke-width="2" stroke-linecap="round" stroke-linejoin="round"/>
<path d="M12.1667 16.9479V20.2812C12.1667 21.1653 12.5179 22.0131 13.143 22.6382C13.7681 23.2634 14.616 23.6145 15.5 23.6145C16.3841 23.6145 17.2319 23.2634 17.857 22.6382C18.4822 22.0131 18.8334 21.1653 18.8334 20.2812V16.9479M23.8334 16.9479L28.8334 23.6145M23.8334 23.6145L28.8334 16.9479" stroke="white" stroke-width="2" stroke-linecap="round" stroke-linejoin="round"/>
</svg>
