<svg width="29" height="29" viewBox="0 0 29 29" fill="none" xmlns="http://www.w3.org/2000/svg">
<path d="M10.1776 7.53723C9.96087 7.50575 9.73991 7.54929 9.55145 7.6606H9.53513C9.0979 7.91664 8.70381 8.23902 8.36802 8.61843C8.08819 8.94082 7.93662 9.26669 7.89698 9.58092C7.87366 9.76714 7.88998 9.95568 7.94478 10.1337L7.96577 10.1454C8.28057 11.0683 8.69098 11.9563 9.19234 12.7919C9.8388 13.9657 10.6343 15.0512 11.5592 16.0216L11.5872 16.0611L11.6315 16.0937L11.6583 16.1252L11.691 16.1531C12.6665 17.0791 13.7566 17.8769 14.9346 18.5273C16.2813 19.2594 17.0986 19.605 17.5895 19.7493V19.7563C17.7329 19.8005 17.8635 19.8203 17.9952 19.8203C18.4133 19.7895 18.809 19.6199 19.1192 19.3385C19.4981 19.0033 19.8188 18.6088 20.0683 18.17V18.1619C20.3026 17.7196 20.2234 17.303 19.8852 17.0201C19.2061 16.4278 18.4717 15.9017 17.6921 15.449C17.1697 15.1662 16.6392 15.3372 16.4247 15.6235L15.9665 16.2008C15.731 16.4871 15.3042 16.4475 15.3042 16.4475L15.2926 16.4545C12.1084 15.6433 11.2584 12.4253 11.2584 12.4253C11.2584 12.4253 11.2188 11.9877 11.5137 11.7643L12.0874 11.3034C12.3625 11.0799 12.5538 10.5516 12.2588 10.0302C11.8083 9.25128 11.2822 8.51843 10.6883 7.84216C10.5587 7.683 10.377 7.5746 10.1752 7.53607L10.1776 7.53723ZM15.5584 6.13831C15.4038 6.13831 15.2555 6.19961 15.1462 6.30875C15.0369 6.41788 14.9754 6.56589 14.9754 6.72022C14.9754 6.87456 15.0369 7.02257 15.1462 7.1317C15.2555 7.24083 15.4038 7.30214 15.5584 7.30214C17.0322 7.30214 18.2564 7.7828 19.2253 8.70456C19.7232 9.2085 20.1114 9.80554 20.3656 10.4596C20.6209 11.1149 20.7375 11.8143 20.7072 12.5149C20.7007 12.6693 20.7559 12.8199 20.8607 12.9336C20.9654 13.0473 21.1111 13.1148 21.2657 13.1213C21.4203 13.1278 21.5712 13.0727 21.6851 12.9681C21.799 12.8636 21.8667 12.7182 21.8732 12.5638C21.9093 11.702 21.766 10.842 21.4523 10.0383C21.1372 9.23077 20.6594 8.49637 20.0485 7.88056L20.0368 7.86893C18.8347 6.72255 17.3143 6.13831 15.5584 6.13831Z" fill="white"/>
<path d="M15.5176 8.05158C15.363 8.05158 15.2147 8.11289 15.1054 8.22202C14.9961 8.33115 14.9346 8.47916 14.9346 8.6335C14.9346 8.78783 14.9961 8.93584 15.1054 9.04497C15.2147 9.1541 15.363 9.21541 15.5176 9.21541H15.5374C16.6008 9.29106 17.375 9.64487 17.9171 10.2256C18.4733 10.8238 18.7613 11.5675 18.7391 12.4869C18.7356 12.6413 18.7936 12.7907 18.9004 12.9023C19.0072 13.014 19.1541 13.0787 19.3087 13.0822C19.4633 13.0858 19.613 13.0279 19.7248 12.9213C19.8367 12.8147 19.9015 12.668 19.9051 12.5137C19.933 11.3068 19.5436 10.2652 18.7718 9.43421V9.43188C17.9824 8.58694 16.8993 8.14003 15.5957 8.05274L15.5759 8.05042L15.5176 8.05158Z" fill="white"/>
<path d="M15.4955 10.001C15.4175 9.99416 15.3389 10.0031 15.2644 10.0272C15.1899 10.0513 15.121 10.0902 15.0619 10.1414C15.0028 10.1927 14.9546 10.2554 14.9203 10.3256C14.8859 10.3959 14.8661 10.4723 14.8621 10.5504C14.858 10.6285 14.8697 10.7066 14.8965 10.78C14.9234 10.8535 14.9647 10.9208 15.0182 10.9779C15.0717 11.035 15.1361 11.0808 15.2077 11.1126C15.2793 11.1443 15.3565 11.1613 15.4349 11.1625C15.9222 11.1881 16.2335 11.3348 16.4294 11.5315C16.6264 11.7293 16.7734 12.047 16.8002 12.544C16.8016 12.6221 16.8188 12.6991 16.8507 12.7704C16.8826 12.8417 16.9286 12.9059 16.9859 12.9591C17.0431 13.0124 17.1106 13.0535 17.1841 13.0802C17.2577 13.1068 17.3358 13.1184 17.414 13.1143C17.4921 13.1101 17.5686 13.0903 17.6389 13.0561C17.7092 13.0218 17.7719 12.9737 17.8232 12.9148C17.8745 12.8558 17.9134 12.7871 17.9376 12.7128C17.9617 12.6385 17.9706 12.5601 17.9638 12.4823C17.9265 11.784 17.7073 11.1672 17.2584 10.7133C16.8072 10.2594 16.1927 10.0383 15.4955 10.001Z" fill="white"/>
<path fill-rule="evenodd" clip-rule="evenodd" d="M9.13054 3.09365C12.8407 2.26582 16.6881 2.26582 20.3982 3.09365L20.7935 3.18094C21.8781 3.42296 22.8742 3.96039 23.6711 4.73352C24.4681 5.50665 25.0347 6.4852 25.308 7.56044C26.2498 11.2648 26.2498 15.1453 25.308 18.8496C25.0347 19.9249 24.4681 20.9034 23.6711 21.6765C22.8742 22.4497 21.8781 22.9871 20.7935 23.2291L20.3971 23.3164C18.0734 23.8351 15.689 24.0306 13.3116 23.8972L10.2184 26.6601C10.1018 26.7643 9.95925 26.8354 9.80573 26.8659C9.65221 26.8964 9.4933 26.8852 9.3456 26.8335C9.19789 26.7817 9.06681 26.6914 8.96602 26.5718C8.86523 26.4523 8.79843 26.3079 8.7726 26.1538L8.26075 23.1023C7.27924 22.7974 6.39245 22.2464 5.68514 21.5019C4.97783 20.7573 4.47364 19.8442 4.22075 18.8496C3.27896 15.1453 3.27896 11.2648 4.22075 7.56044C4.49407 6.4852 5.06069 5.50665 5.85766 4.73352C6.65463 3.96039 7.65073 3.42296 8.73529 3.18094L9.13054 3.09365ZM20.017 4.79634C16.5579 4.02449 12.9708 4.02449 9.51181 4.79634L9.11539 4.88479C8.3467 5.05664 7.64078 5.43779 7.076 5.98593C6.51123 6.53407 6.10971 7.22773 5.91603 7.9899C5.0459 11.4124 5.0459 14.9977 5.91603 18.4202C6.1098 19.1825 6.51149 19.8762 7.07649 20.4244C7.64148 20.9725 8.34765 21.3536 9.11655 21.5253L9.22149 21.5485C9.39124 21.5864 9.54582 21.674 9.66545 21.8001C9.78508 21.9261 9.86433 22.0849 9.89307 22.2562L10.2359 24.3022L12.4185 22.3528C12.5057 22.2747 12.6077 22.2149 12.7184 22.1769C12.8292 22.1389 12.9465 22.1235 13.0633 22.1316C15.3941 22.2967 17.7365 22.1222 20.017 21.6137L20.4122 21.5253C21.1811 21.3536 21.8873 20.9725 22.4523 20.4244C23.0173 19.8762 23.419 19.1825 23.6128 18.4202C24.4826 14.9985 24.4826 11.4127 23.6128 7.9899C23.419 7.22758 23.0173 6.53382 22.4523 5.98567C21.8873 5.43752 21.1811 5.05645 20.4122 4.88479L20.017 4.79634Z" fill="white"/>
</svg>
