<svg width="40" height="40" viewBox="0 0 40 40" fill="none" xmlns="http://www.w3.org/2000/svg">
<g clip-path="url(#clip0_1165_6263)">
<path d="M32.1667 16.6666V16.1666H31.6667H8.33333H7.83333V16.6666V28.3333V28.3334C7.8334 28.864 8.02824 29.3763 8.38088 29.7728C8.73353 30.1694 9.21945 30.4228 9.7465 30.4849L9.76078 30.4865L9.77514 30.4874L9.97014 30.4991L9.98506 30.5H10H30H30.0001C30.5308 30.4999 31.043 30.3051 31.4395 29.9524C31.8361 29.5998 32.0895 29.1138 32.1516 28.5868L32.1532 28.5725L32.1541 28.5582L32.1658 28.3632L32.1667 28.3482V28.3333V16.6666ZM31.6667 7.16663C32.4181 7.16663 33.1388 7.46514 33.6701 7.99649C34.2015 8.52784 34.5 9.24851 34.5 9.99996V30C34.5 30.7514 34.2015 31.4721 33.6701 32.0034C33.1388 32.5348 32.4181 32.8333 31.6667 32.8333H8.33333C7.58189 32.8333 6.86122 32.5348 6.32986 32.0034C5.79851 31.4721 5.5 30.7514 5.5 30V9.99996C5.5 9.24851 5.79851 8.52784 6.32986 7.99649C6.86122 7.46514 7.58189 7.16663 8.33333 7.16663H31.6667ZM10 9.49996C9.42536 9.49996 8.87426 9.72823 8.46794 10.1346C8.06161 10.5409 7.83333 11.092 7.83333 11.6666C7.83333 12.2413 8.06161 12.7924 8.46794 13.1987C8.87426 13.605 9.42536 13.8333 10 13.8333C10.5746 13.8333 11.1257 13.605 11.5321 13.1987C11.9384 12.7924 12.1667 12.2413 12.1667 11.6666C12.1667 11.092 11.9384 10.5409 11.5321 10.1346C11.1257 9.72823 10.5746 9.49996 10 9.49996ZM15 9.49996C14.4254 9.49996 13.8743 9.72823 13.4679 10.1346C13.0616 10.5409 12.8333 11.092 12.8333 11.6666C12.8333 12.2413 13.0616 12.7924 13.4679 13.1987C13.8743 13.605 14.4254 13.8333 15 13.8333C15.5746 13.8333 16.1257 13.605 16.5321 13.1987C16.9384 12.7924 17.1667 12.2413 17.1667 11.6666C17.1667 11.092 16.9384 10.5409 16.5321 10.1346C16.1257 9.72823 15.5746 9.49996 15 9.49996ZM20 9.49996C19.4254 9.49996 18.8743 9.72823 18.4679 10.1346C18.0616 10.5409 17.8333 11.092 17.8333 11.6666C17.8333 12.2413 18.0616 12.7924 18.4679 13.1987C18.8743 13.605 19.4254 13.8333 20 13.8333C20.5746 13.8333 21.1257 13.605 21.5321 13.1987C21.9384 12.7924 22.1667 12.2413 22.1667 11.6666C22.1667 11.092 21.9384 10.5409 21.5321 10.1346C21.1257 9.72823 20.5746 9.49996 20 9.49996Z" fill="white" stroke="#232C60"/>
</g>
<defs>
<clipPath id="clip0_1165_6263">
<rect width="40" height="40" fill="white"/>
</clipPath>
</defs>
</svg>
